REM DIRINDEX 1\2,1\3
REM DIRNAME folder01,folder02,folder03
TITLE ""
FILE "DISC1Track25.mp3" MP3
  TRACK 01 AUDIO
    TITLE "0:"
    INDEX 01 00:00:00
  TRACK 02 AUDIO
    TITLE "3:cjc133_1106"
    INDEX 01 00:00:13
  TRACK 03 AUDIO
    TITLE "0:"
    INDEX 01 00:01:34
  TRACK 04 AUDIO
    TITLE "2:cjc133_1107"
    INDEX 01 00:02:12
  TRACK 05 AUDIO
    TITLE "2:cjc133_1108"
    INDEX 01 00:05:18
  TRACK 06 AUDIO
    TITLE "2:cjc133_1109"
    INDEX 01 00:08:09
  TRACK 07 AUDIO
    TITLE "0:"
    INDEX 01 00:10:10
  TRACK 08 AUDIO
    TITLE "2:cjc133_1110"
    INDEX 01 00:10:59
  TRACK 09 AUDIO
    TITLE "2:cjc133_1111"
    INDEX 01 00:13:55
  TRACK 10 AUDIO
    TITLE "2:cjc133_1112"
    INDEX 01 00:16:48
  TRACK 11 AUDIO
    TITLE "0:"
    INDEX 01 00:18:44
  TRACK 12 AUDIO
    TITLE "2:cjc133_1113"
    INDEX 01 00:19:18
  TRACK 13 AUDIO
    TITLE "2:cjc133_1114"
    INDEX 01 00:20:69
  TRACK 14 AUDIO
    TITLE "2:cjc133_1115"
    INDEX 01 00:25:11
  TRACK 15 AUDIO
    TITLE "0:"
    INDEX 01 00:28:41
  TRACK 16 AUDIO
    TITLE "2:cjc133_1116"
    INDEX 01 00:29:19
  TRACK 17 AUDIO
    TITLE "2:cjc133_1117"
    INDEX 01 00:30:34
  TRACK 18 AUDIO
    TITLE "2:cjc133_1118"
    INDEX 01 00:33:68
  TRACK 19 AUDIO
    TITLE "0:"
    INDEX 01 00:36:38
  TRACK 20 AUDIO
    TITLE "2:cjc133_1119"
    INDEX 01 00:37:12
  TRACK 21 AUDIO
    TITLE "2:cjc133_1120"
    INDEX 01 00:39:68
  TRACK 22 AUDIO
    TITLE "2:cjc133_1121"
    INDEX 01 00:42:21
  TRACK 23 AUDIO
    TITLE "0:"
    INDEX 01 00:43:56
  TRACK 24 AUDIO
    TITLE "2:cjc133_1122"
    INDEX 01 00:44:34
  TRACK 25 AUDIO
    TITLE "2:cjc133_1123"
    INDEX 01 00:46:13
  TRACK 26 AUDIO
    TITLE "2:cjc133_1124"
    INDEX 01 00:49:12
  TRACK 27 AUDIO
    TITLE "0:"
    INDEX 01 00:51:05
  TRACK 28 AUDIO
    TITLE "2:cjc133_1125"
    INDEX 01 00:51:56
  TRACK 29 AUDIO
    TITLE "2:cjc133_1126"
    INDEX 01 00:53:17
  TRACK 30 AUDIO
    TITLE "2:cjc133_1127"
    INDEX 01 00:55:53
  TRACK 31 AUDIO
    TITLE "0:"
    INDEX 01 00:57:17
  TRACK 32 AUDIO
    TITLE "2:cjc133_1128"
    INDEX 01 00:57:70
  TRACK 33 AUDIO
    TITLE "2:cjc133_1129"
    INDEX 01 00:59:00
  TRACK 34 AUDIO
    TITLE "2:cjc133_1130"
    INDEX 01 01:01:11
  TRACK 35 AUDIO
    TITLE "0:"
    INDEX 01 01:02:32
  TRACK 36 AUDIO
    TITLE "2:cjc133_1131"
    INDEX 01 01:03:02
  TRACK 37 AUDIO
    TITLE "2:cjc133_1132"
    INDEX 01 01:04:23
  TRACK 38 AUDIO
    TITLE "2:cjc133_1133"
    INDEX 01 01:07:47
  TRACK 39 AUDIO
    TITLE "0:"
    INDEX 01 01:10:04
  TRACK 40 AUDIO
    TITLE "2:cjc133_1134"
    INDEX 01 01:10:57
  TRACK 41 AUDIO
    TITLE "2:cjc133_1135"
    INDEX 01 01:11:56
  TRACK 42 AUDIO
    TITLE "2:cjc133_1136"
    INDEX 01 01:14:49
  TRACK 43 AUDIO
    TITLE "0:"
    INDEX 01 01:16:44
  TRACK 44 AUDIO
    TITLE "2:cjc133_1137"
    INDEX 01 01:17:20
  TRACK 45 AUDIO
    TITLE "2:cjc133_1138"
    INDEX 01 01:19:28
  TRACK 46 AUDIO
    TITLE "2:cjc133_1139"
    INDEX 01 01:21:57
  TRACK 47 AUDIO
    TITLE "0:"
    INDEX 01 01:23:11
  TRACK 48 AUDIO
    TITLE "2:cjc133_1140"
    INDEX 01 01:23:65
  TRACK 49 AUDIO
    TITLE "2:cjc133_1141"
    INDEX 01 01:24:65
  TRACK 50 AUDIO
    TITLE "2:cjc133_1142"
    INDEX 01 01:27:32
  TRACK 51 AUDIO
    TITLE "0:"
    INDEX 01 01:29:07
  TRACK 52 AUDIO
    TITLE "2:cjc133_1143"
    INDEX 01 01:29:58
  TRACK 53 AUDIO
    TITLE "2:cjc133_1144"
    INDEX 01 01:31:00
  TRACK 54 AUDIO
    TITLE "2:cjc133_1145"
    INDEX 01 01:33:50
  TRACK 55 AUDIO
    TITLE "0:"
    INDEX 01 01:35:37
  TRACK 56 AUDIO
    TITLE "2:cjc133_1146"
    INDEX 01 01:36:13
  TRACK 57 AUDIO
    TITLE "2:cjc133_1147"
    INDEX 01 01:37:21
  TRACK 58 AUDIO
    TITLE "2:cjc133_1148"
    INDEX 01 01:39:51
  TRACK 59 AUDIO
    TITLE "0:"
    INDEX 01 01:41:26
  TRACK 60 AUDIO
    TITLE "2:cjc133_1149"
    INDEX 01 01:41:73
  TRACK 61 AUDIO
    TITLE "2:cjc133_1150"
    INDEX 01 01:42:65
  TRACK 62 AUDIO
    TITLE "2:cjc133_1151"
    INDEX 01 01:45:44
  TRACK 63 AUDIO
    TITLE "0:"
    INDEX 01 01:47:25
